HIERARCHY
ROOT Hips
{
	OFFSET -0.179506 -22.333345 2.821913
	CHANNELS 6 Xposition Yposition Zposition Zrotation Yrotation Xrotation 
	JOINT LeftUpLeg
	{
		OFFSET 6.951974 -9.140623 -0.681533
		CHANNELS 3 Zrotation Yrotation Xrotation
		JOINT LeftLeg
		{
			OFFSET 3.427654 -37.519855 -0.449580
			CHANNELS 3 Zrotation Yrotation Xrotation
			JOINT LeftFoot
			{
				OFFSET -1.359570 -39.796059 -4.369333
				CHANNELS 3 Zrotation Yrotation Xrotation
				JOINT LeftToe
				{
					OFFSET 2.635814 -5.579078 11.928840
					CHANNELS 3 Zrotation Yrotation Xrotation
					End Site
					{
						OFFSET 0.000000 0.000000 0.000000
					}
				}
			}
		}
	}
	JOINT RightUpLeg
	{
		OFFSET -6.767048 -9.052170 -0.431982
		CHANNELS 3 Zrotation Yrotation Xrotation
		JOINT RightLeg
		{
			OFFSET -3.829005 -38.256897 -0.885003
			CHANNELS 3 Zrotation Yrotation Xrotation
			JOINT RightFoot
			{
				OFFSET 1.577377 -39.841461 -4.231180
				CHANNELS 3 Zrotation Yrotation Xrotation
				JOINT RightToe
				{
					OFFSET -2.537174 -4.814398 12.334795
					CHANNELS 3 Zrotation Yrotation Xrotation
					End Site
					{
						OFFSET 0.000000 0.000000 0.000000
					}
				}
			}
		}
	}
	JOINT Spine
	{
		OFFSET -0.253288 10.896323 -2.669631
		CHANNELS 3 Zrotation Yrotation Xrotation
		JOINT Spine1
		{
			OFFSET 0.548704 13.518043 0.109247
			CHANNELS 3 Zrotation Yrotation Xrotation
			JOINT Spine2
			{
				OFFSET 0.145701 5.292222 2.542457
				CHANNELS 3 Zrotation Yrotation Xrotation
				JOINT Neck
				{
					OFFSET -0.277840 21.387037 -4.285703
					CHANNELS 3 Zrotation Yrotation Xrotation
					JOINT Head
					{
						OFFSET 0.515184 6.496960 5.134897
						CHANNELS 3 Zrotation Yrotation Xrotation
						End Site
						{
							OFFSET 0.000000 0.000000 0.000000
						}
					}
				}
				JOINT LeftShoulder
				{
					OFFSET 7.884473 12.174932 -3.408961
					CHANNELS 3 Zrotation Yrotation Xrotation
					JOINT LeftArm
					{
						OFFSET 9.097692 3.046888 -0.886815
						CHANNELS 3 Zrotation Yrotation Xrotation
						JOINT LeftForeArm
						{
							OFFSET 25.961220 -1.277207 -2.745643
							CHANNELS 3 Zrotation Yrotation Xrotation
							JOINT LeftHand
							{
								OFFSET 24.923361 0.898606 -0.117091
								CHANNELS 3 Zrotation Yrotation Xrotation
								End Site
								{
									OFFSET 0.000000 0.000000 0.000000
								}
							}
						}
					}
				}
				JOINT RightShoulder
				{
					OFFSET -8.175920 11.883285 -3.861528
					CHANNELS 3 Zrotation Yrotation Xrotation
					JOINT RightArm
					{
						OFFSET -9.601238 3.255117 -0.914307
						CHANNELS 3 Zrotation Yrotation Xrotation
						JOINT RightForeArm
						{
							OFFSET -25.374195 -1.332924 -2.140099
							CHANNELS 3 Zrotation Yrotation Xrotation
							JOINT RightHand
							{
								OFFSET -25.529810 0.777228 -0.555919
								CHANNELS 3 Zrotation Yrotation Xrotation
								End Site
								{
									OFFSET 0.000000 0.000000 0.000000
								}
							}
						}
					}
				}
			}
		}
	}
}
MOTION
Frames: 6
Frame Time: 0.033333
317.207489 -339.015686 86.359787 49.529958 -1.896096 92.617457 3.282777 -0.283405 8.294401 -15.400090 -6.541400 58.193659 2.028363 16.890266 -16.734585 nan nan nan -8.641593 -0.137966 -35.570259 8.548829 -5.403196 47.904729 -3.024456 -7.357701 -15.122861 nan nan nan -1.279861 -5.165800 7.845774 3.105724 -2.471856 14.627271 -0.305816 -3.009129 -5.571140 -4.533794 -4.279118 6.195971 4.611657 1.699677 -8.533492 -28.758344 -2.234233 8.805329 -51.114867 1.048794 15.216384 0.821063 -7.717883 18.334058 -7.476253 -12.076488 21.260439 24.629121 1.323114 5.522195 45.131725 -11.148513 3.452065 -2.401078 27.878970 2.097472 4.932702 19.126329 -2.807557 
315.907349 -337.859894 86.365273 49.477499 -1.805661 92.992969 3.468489 -0.036186 9.981896 -15.133742 -7.864009 56.070176 1.865494 17.016178 -17.047723 nan nan nan -8.488086 -0.048499 -36.652281 8.690553 -5.249812 47.192527 -2.439373 -7.182082 -13.403094 nan nan nan -1.517231 -5.671112 7.209690 3.411561 -2.445829 14.363760 -0.295679 -3.036875 -5.474078 -4.695777 -4.491447 6.542241 4.854732 1.582378 -8.067304 -29.159559 -1.828576 8.801355 -50.171665 1.422037 15.746548 -0.772025 -8.395543 19.512344 -6.627254 -12.969928 21.123378 24.954957 0.532017 5.568541 44.350441 -12.166801 3.437526 -1.105532 28.446824 2.988968 3.919426 19.610974 -2.884198 
314.475494 -336.658325 86.656113 49.956754 -1.781054 91.847694 4.730235 -0.144354 13.210371 -13.592227 -7.883695 52.792358 0.870476 13.978209 -17.617279 nan nan nan -8.937473 -0.590941 -34.342895 7.591616 -6.995692 43.306219 -3.195161 -4.015497 -11.314282 nan nan nan -1.749056 -5.558236 7.889714 3.605221 -1.148468 15.770210 -0.267653 -3.197424 -6.702951 -6.287862 6.223778 1.693675 -2.632118 3.086264 -13.563262 -24.313920 4.799959 1.119412 -53.513144 -7.239387 15.111211 31.436793 -58.079785 -22.356700 6.104508 -23.115694 -6.902765 24.604036 -4.378811 4.745090 46.819869 -11.512239 9.381005 -6.182490 29.670250 1.087914 1.421464 18.500338 -7.906118 
313.170807 -335.262787 86.913956 50.756990 -2.388591 91.621432 4.693797 0.123311 14.833047 -13.375391 -9.465128 50.230464 0.099176 13.264526 -17.451982 nan nan nan -8.948171 -1.846830 -33.632414 5.694813 -9.621437 39.105053 -3.600356 -6.141349 -9.767722 nan nan nan -2.522017 -5.780141 7.511824 3.525090 -1.945867 17.156940 0.136385 -3.994739 -7.107931 -7.298698 6.341825 1.393415 -2.400755 4.029151 -14.594204 -25.135682 2.931893 3.352998 -51.770840 -5.761821 14.681692 39.866527 -64.914391 -31.917411 7.641962 -25.687916 -10.296605 24.875251 -3.346915 5.203463 47.400781 -13.058030 8.961555 -6.577188 31.380040 0.671374 0.479987 19.200914 -8.746302 
311.662750 -333.889221 87.360260 51.319038 -2.242161 91.472868 4.869546 -0.037823 16.011193 -12.826136 -10.917013 47.861851 -0.163753 13.053474 -17.075908 nan nan nan -8.521704 -1.703649 -33.064575 5.351762 -9.486972 35.922135 -3.323775 -6.311915 -7.717327 nan nan nan -3.011388 -5.747245 7.642035 3.856104 -2.179719 17.499578 0.447018 -4.256540 -7.156456 -7.139702 6.747489 1.043280 -2.199404 4.137039 -14.244348 -25.081851 2.720152 3.433788 -51.752285 -6.379589 14.895639 42.349384 -66.290814 -34.504606 9.649305 -26.188993 -11.323693 25.283492 -3.915309 4.862847 47.502220 -13.886296 9.149040 -6.194257 32.431004 0.766919 -0.619076 19.455604 -9.221168 
310.242767 -332.428741 87.816063 51.450575 -2.086358 91.877184 4.719979 -0.119913 16.499844 -12.051694 -11.684747 45.461595 -0.264664 12.753289 -17.017396 nan nan nan -8.185122 -1.376208 -33.046512 4.988709 -9.253048 32.511115 -2.904962 -6.296792 -4.909806 nan nan nan -3.037811 -6.119762 7.604833 4.044551 -2.324369 17.206710 0.466043 -4.287224 -7.075676 -7.355656 6.998574 0.813447 -2.315437 4.160355 -14.379928 -25.000006 2.952675 3.446223 -51.960757 -6.365836 15.317883 45.578164 -67.944830 -38.130671 10.453276 -26.425253 -12.977577 24.956408 -4.521607 4.739843 47.930717 -14.533152 9.395515 -5.718058 33.918154 0.967848 -0.955956 19.526518 -10.625563 
